<svg xmlns="http://www.w3.org/2000/svg" width="640" height="144" viewBox="0 0 640 144" role="img" aria-label="ThinkControl">
  <rect width="640" height="144" fill="none"/>
  <g transform="translate(18 18)">
    <rect x="0" y="0" width="108" height="108" rx="18" fill="#f4f5f7"/>
    <path d="M24 29h32v12H46v42H34V41H24z" fill="#16181c"/>
    <path d="M84 35c-6-5-13-8-21-8-17 0-30 13-30 30s13 30 30 30c8 0 15-3 21-8l-8-9c-4 3-8 5-13 5-10 0-18-8-18-18s8-18 18-18c5 0 9 2 13 5z" fill="#16181c" opacity="0.94"/>
    <circle cx="85" cy="25" r="8" fill="#f04a40"/>
  </g>
  <text x="150" y="89" font-family="Segoe UI, Inter, Arial, sans-serif" font-size="56" font-weight="650" letter-spacing="-1.8" fill="#f0f3f6">ThinkControl</text>
</svg>
